<svg width="125" height="16" viewBox="0 0 125 16" fill="none" xmlns="http://www.w3.org/2000/svg">
<path d="M5.096 12.816C6.024 12.816 6.704 12.632 7.136 12.264C7.568 11.896 7.784 11.448 7.784 10.92C7.784 10.44 7.608 10.048 7.256 9.744C6.92 9.44 6.416 9.184 5.744 8.976L4.208 8.496C3.408 8.224 2.704 7.92 2.096 7.584C1.488 7.232 1.016 6.792 0.68 6.264C0.344 5.736 0.176 5.072 0.176 4.272C0.176 2.976 0.664 1.952 1.64 1.2C2.616 0.431999 3.952 0.0479994 5.648 0.0479994C6.544 0.0479994 7.344 0.135999 8.048 0.311999C8.752 0.487999 9.304 0.743999 9.704 1.08C10.104 1.4 10.304 1.784 10.304 2.232C10.304 2.536 10.224 2.808 10.064 3.048C9.92 3.288 9.736 3.48 9.512 3.624C9.128 3.368 8.616 3.136 7.976 2.928C7.352 2.72 6.664 2.616 5.912 2.616C5.096 2.616 4.464 2.768 4.016 3.072C3.584 3.376 3.368 3.776 3.368 4.272C3.368 4.656 3.52 4.976 3.824 5.232C4.128 5.488 4.592 5.704 5.216 5.88L6.584 6.312C7.992 6.728 9.072 7.296 9.824 8.016C10.592 8.736 10.976 9.712 10.976 10.944C10.976 12.256 10.472 13.328 9.464 14.16C8.472 14.976 7.04 15.384 5.168 15.384C4.192 15.384 3.32 15.272 2.552 15.048C1.8 14.84 1.208 14.552 0.776 14.184C0.344 13.8 0.128 13.384 0.128 12.936C0.128 12.552 0.232 12.232 0.44 11.976C0.664 11.72 0.92 11.528 1.208 11.4C1.608 11.752 2.136 12.08 2.792 12.384C3.464 12.672 4.232 12.816 5.096 12.816ZM23.3163 7.152V9.888H20.2683V7.512C20.2683 6.872 20.0843 6.408 19.7163 6.12C19.3643 5.832 18.9003 5.688 18.3243 5.688C17.9243 5.688 17.5563 5.752 17.2203 5.88C16.8843 6.008 16.6043 6.136 16.3803 6.264V9.888H13.3323V6.048C13.3323 5.68 13.4123 5.376 13.5723 5.136C13.7323 4.88 13.9803 4.64 14.3163 4.416C14.7963 4.096 15.4043 3.832 16.1403 3.624C16.8923 3.4 17.6523 3.288 18.4203 3.288C19.2043 3.288 19.9243 3.408 20.5803 3.648C21.2363 3.888 21.7883 4.24 22.2363 4.704C22.3483 4.816 22.4523 4.92 22.5483 5.016C22.6443 5.112 22.7243 5.224 22.7883 5.352C22.9323 5.576 23.0523 5.848 23.1483 6.168C23.2603 6.472 23.3163 6.8 23.3163 7.152ZM30.2523 7.392V9.888H27.2283V7.512C27.2283 6.872 27.0523 6.408 26.7003 6.12C26.3483 5.832 25.8843 5.688 25.3083 5.688C24.8763 5.688 24.4603 5.776 24.0603 5.952C23.6763 6.128 23.3403 6.36 23.0523 6.648L21.5403 4.8C22.0203 4.384 22.5963 4.032 23.2683 3.744C23.9563 3.44 24.7643 3.288 25.6923 3.288C26.5403 3.288 27.3083 3.432 27.9963 3.72C28.6843 3.992 29.2283 4.432 29.6283 5.04C30.0443 5.632 30.2523 6.416 30.2523 7.392ZM13.3323 8.736H16.3803V14.976C16.2523 15.008 16.0603 15.048 15.8043 15.096C15.5643 15.144 15.2923 15.168 14.9883 15.168C14.4283 15.168 14.0123 15.064 13.7403 14.856C13.4683 14.648 13.3323 14.28 13.3323 13.752V8.736ZM20.2683 8.736H23.3163V14.976C23.1883 15.008 22.9963 15.048 22.7403 15.096C22.5003 15.144 22.2363 15.168 21.9483 15.168C21.3723 15.168 20.9483 15.064 20.6763 14.856C20.4043 14.648 20.2683 14.28 20.2683 13.752V8.736ZM27.2283 8.736H30.2523V14.976C30.1243 15.008 29.9323 15.048 29.6763 15.096C29.4363 15.144 29.1723 15.168 28.8843 15.168C28.3083 15.168 27.8843 15.064 27.6123 14.856C27.3563 14.648 27.2283 14.28 27.2283 13.752V8.736ZM37.7891 15.36C36.2051 15.36 34.9491 15.048 34.0211 14.424C33.0931 13.8 32.6291 12.88 32.6291 11.664C32.6291 10.592 32.9651 9.776 33.6371 9.216C34.3251 8.64 35.3171 8.288 36.6131 8.16L39.9011 7.824V7.392C39.9011 6.768 39.6771 6.32 39.2291 6.048C38.7811 5.76 38.1651 5.616 37.3811 5.616C36.7571 5.616 36.1491 5.696 35.5571 5.856C34.9651 6.016 34.4371 6.2 33.9731 6.408C33.7971 6.28 33.6451 6.104 33.5171 5.88C33.4051 5.656 33.3491 5.424 33.3491 5.184C33.3491 4.592 33.6691 4.152 34.3091 3.864C34.7571 3.672 35.2771 3.528 35.8691 3.432C36.4771 3.336 37.0851 3.288 37.6931 3.288C39.2611 3.288 40.5091 3.624 41.4371 4.296C42.3811 4.952 42.8531 5.992 42.8531 7.416V12.96C42.8531 13.344 42.7571 13.648 42.5651 13.872C42.3891 14.096 42.1491 14.296 41.8451 14.472C41.3971 14.728 40.8291 14.936 40.1411 15.096C39.4531 15.272 38.6691 15.36 37.7891 15.36ZM37.7891 13.056C38.2531 13.056 38.6771 13.008 39.0611 12.912C39.4451 12.816 39.7251 12.712 39.9011 12.6V9.936L37.5731 10.152C36.9331 10.2 36.4451 10.344 36.1091 10.584C35.7731 10.808 35.6051 11.144 35.6051 11.592C35.6051 12.04 35.7811 12.4 36.1331 12.672C36.4851 12.928 37.0371 13.056 37.7891 13.056ZM48.8881 6.384V9.624H45.8401V6.144C45.8401 5.712 45.9361 5.36 46.1281 5.088C46.3201 4.8 46.6001 4.544 46.9681 4.32C47.4641 4.016 48.0801 3.768 48.8161 3.576C49.5521 3.384 50.3361 3.288 51.1681 3.288C52.6881 3.288 53.4481 3.76 53.4481 4.704C53.4481 4.928 53.4161 5.144 53.3521 5.352C53.2881 5.544 53.2081 5.704 53.1121 5.832C52.9521 5.8 52.7521 5.776 52.5121 5.76C52.2721 5.728 52.0241 5.712 51.7681 5.712C51.1921 5.712 50.6561 5.776 50.1601 5.904C49.6641 6.032 49.2401 6.192 48.8881 6.384ZM45.8401 8.664L48.8881 8.808V14.976C48.7601 15.008 48.5681 15.048 48.3121 15.096C48.0721 15.144 47.8001 15.168 47.4961 15.168C46.9361 15.168 46.5201 15.064 46.2481 14.856C45.9761 14.648 45.8401 14.28 45.8401 13.752V8.664ZM55.4272 8.664H58.4272V11.472C58.4272 11.984 58.5792 12.352 58.8832 12.576C59.2032 12.8 59.6432 12.912 60.2032 12.912C60.4592 12.912 60.7312 12.88 61.0192 12.816C61.3232 12.736 61.5792 12.656 61.7872 12.576C61.9152 12.704 62.0192 12.864 62.0992 13.056C62.1952 13.232 62.2432 13.44 62.2432 13.68C62.2432 14.16 62.0272 14.56 61.5952 14.88C61.1632 15.184 60.4672 15.336 59.5072 15.336C58.2432 15.336 57.2432 15.056 56.5072 14.496C55.7872 13.92 55.4272 12.976 55.4272 11.664V8.664ZM57.2512 6.24V3.864H61.9552C62.0352 3.976 62.1072 4.136 62.1712 4.344C62.2352 4.552 62.2672 4.784 62.2672 5.04C62.2672 5.44 62.1712 5.744 61.9792 5.952C61.7872 6.144 61.5312 6.24 61.2112 6.24H57.2512ZM58.4272 9.312H55.4272V0.647999C55.5552 0.615999 55.7392 0.575999 55.9792 0.527999C56.2352 0.48 56.5072 0.456 56.7952 0.456C57.3552 0.456 57.7632 0.559999 58.0192 0.767999C58.2912 0.975999 58.4272 1.344 58.4272 1.872V9.312Z" fill="#52A5F5"/>
<path d="M72.3176 7.632C72.0936 8.496 71.8376 9.376 71.5496 10.272C71.2776 11.168 71.0136 12.008 70.7576 12.792C70.5176 13.576 70.3016 14.224 70.1096 14.736C69.9496 14.864 69.7256 14.968 69.4376 15.048C69.1656 15.144 68.8216 15.192 68.4056 15.192C67.9576 15.192 67.5496 15.128 67.1816 15C66.8296 14.856 66.5976 14.648 66.4856 14.376C66.3256 14.056 66.1496 13.6 65.9576 13.008C65.7816 12.416 65.5896 11.736 65.3816 10.968C65.1896 10.184 64.9896 9.376 64.7816 8.544C64.5896 7.712 64.4136 6.912 64.2536 6.144C64.0936 5.36 63.9576 4.656 63.8456 4.032C64.0056 3.872 64.2216 3.728 64.4936 3.6C64.7816 3.456 65.1016 3.384 65.4536 3.384C65.8856 3.384 66.2296 3.488 66.4856 3.696C66.7416 3.904 66.9096 4.256 66.9896 4.752C67.1336 5.712 67.2776 6.6 67.4216 7.416C67.5816 8.232 67.7256 8.968 67.8536 9.624C67.9816 10.28 68.0936 10.84 68.1896 11.304C68.3016 11.768 68.3896 12.12 68.4536 12.36H68.5496C68.6456 11.992 68.8056 11.408 69.0296 10.608C69.2536 9.808 69.5176 8.896 69.8216 7.872C70.1256 6.832 70.4296 5.792 70.7336 4.752C70.9576 4.624 71.1896 4.528 71.4296 4.464C71.6856 4.384 71.9816 4.344 72.3176 4.344C72.7496 4.344 73.1096 4.416 73.3976 4.56C73.7016 4.704 73.9016 4.92 73.9976 5.208C74.3176 6.216 74.6136 7.2 74.8856 8.16C75.1576 9.12 75.3976 9.968 75.6056 10.704C75.8296 11.44 75.9816 11.992 76.0616 12.36H76.1816C76.4536 11.032 76.7336 9.632 77.0216 8.16C77.3256 6.688 77.5816 5.216 77.7896 3.744C78.1896 3.504 78.6456 3.384 79.1576 3.384C79.5736 3.384 79.9096 3.48 80.1656 3.672C80.4376 3.848 80.5736 4.16 80.5736 4.608C80.5736 4.816 80.5256 5.176 80.4296 5.688C80.3496 6.184 80.2296 6.76 80.0696 7.416C79.9256 8.072 79.7576 8.768 79.5656 9.504C79.3736 10.224 79.1816 10.928 78.9896 11.616C78.7976 12.288 78.6136 12.904 78.4376 13.464C78.2616 14.008 78.1096 14.432 77.9816 14.736C77.8376 14.864 77.5976 14.968 77.2616 15.048C76.9256 15.144 76.5656 15.192 76.1816 15.192C75.1736 15.192 74.5736 14.944 74.3816 14.448C74.2216 13.968 74.0136 13.36 73.7576 12.624C73.5176 11.888 73.2696 11.088 73.0136 10.224C72.7576 9.344 72.5256 8.48 72.3176 7.632ZM87.2422 15.36C85.6582 15.36 84.4022 15.048 83.4742 14.424C82.5462 13.8 82.0822 12.88 82.0822 11.664C82.0822 10.592 82.4182 9.776 83.0902 9.216C83.7782 8.64 84.7702 8.288 86.0662 8.16L89.3542 7.824V7.392C89.3542 6.768 89.1302 6.32 88.6822 6.048C88.2342 5.76 87.6182 5.616 86.8342 5.616C86.2102 5.616 85.6022 5.696 85.0102 5.856C84.4182 6.016 83.8902 6.2 83.4262 6.408C83.2502 6.28 83.0982 6.104 82.9702 5.88C82.8582 5.656 82.8022 5.424 82.8022 5.184C82.8022 4.592 83.1222 4.152 83.7622 3.864C84.2102 3.672 84.7302 3.528 85.3222 3.432C85.9302 3.336 86.5382 3.288 87.1462 3.288C88.7142 3.288 89.9622 3.624 90.8902 4.296C91.8342 4.952 92.3062 5.992 92.3062 7.416V12.96C92.3062 13.344 92.2102 13.648 92.0182 13.872C91.8422 14.096 91.6022 14.296 91.2982 14.472C90.8502 14.728 90.2822 14.936 89.5942 15.096C88.9062 15.272 88.1222 15.36 87.2422 15.36ZM87.2422 13.056C87.7062 13.056 88.1302 13.008 88.5142 12.912C88.8982 12.816 89.1782 12.712 89.3542 12.6V9.936L87.0262 10.152C86.3862 10.2 85.8982 10.344 85.5622 10.584C85.2262 10.808 85.0582 11.144 85.0582 11.592C85.0582 12.04 85.2342 12.4 85.5862 12.672C85.9382 12.928 86.4902 13.056 87.2422 13.056ZM95.3413 8.664H98.3413V11.472C98.3413 11.984 98.4933 12.352 98.7973 12.576C99.1173 12.8 99.5573 12.912 100.117 12.912C100.373 12.912 100.645 12.88 100.933 12.816C101.237 12.736 101.493 12.656 101.701 12.576C101.829 12.704 101.933 12.864 102.013 13.056C102.109 13.232 102.157 13.44 102.157 13.68C102.157 14.16 101.941 14.56 101.509 14.88C101.077 15.184 100.381 15.336 99.4213 15.336C98.1573 15.336 97.1573 15.056 96.4213 14.496C95.7013 13.92 95.3413 12.976 95.3413 11.664V8.664ZM97.1653 6.24V3.864H101.869C101.949 3.976 102.021 4.136 102.085 4.344C102.149 4.552 102.181 4.784 102.181 5.04C102.181 5.44 102.085 5.744 101.893 5.952C101.701 6.144 101.445 6.24 101.125 6.24H97.1653ZM98.3413 9.312H95.3413V0.647999C95.4693 0.615999 95.6533 0.575999 95.8933 0.527999C96.1493 0.48 96.4213 0.456 96.7093 0.456C97.2693 0.456 97.6773 0.559999 97.9333 0.767999C98.2053 0.975999 98.3413 1.344 98.3413 1.872V9.312ZM105.685 10.848L105.541 8.712L111.925 7.776C111.877 7.184 111.645 6.672 111.229 6.24C110.813 5.792 110.221 5.568 109.453 5.568C108.637 5.568 107.965 5.848 107.437 6.408C106.909 6.968 106.637 7.768 106.621 8.808L106.693 10.104C106.821 11.096 107.205 11.832 107.845 12.312C108.501 12.776 109.317 13.008 110.293 13.008C110.965 13.008 111.589 12.912 112.165 12.72C112.741 12.512 113.197 12.296 113.533 12.072C113.757 12.2 113.941 12.376 114.085 12.6C114.229 12.824 114.301 13.064 114.301 13.32C114.301 13.736 114.117 14.104 113.749 14.424C113.381 14.728 112.877 14.96 112.237 15.12C111.613 15.28 110.901 15.36 110.101 15.36C108.853 15.36 107.749 15.128 106.789 14.664C105.845 14.2 105.101 13.512 104.557 12.6C104.029 11.672 103.765 10.536 103.765 9.192C103.765 8.2 103.917 7.336 104.221 6.6C104.525 5.848 104.941 5.232 105.469 4.752C105.997 4.256 106.597 3.888 107.269 3.648C107.957 3.408 108.685 3.288 109.453 3.288C110.509 3.288 111.437 3.504 112.237 3.936C113.037 4.352 113.661 4.936 114.109 5.688C114.557 6.44 114.781 7.304 114.781 8.28C114.781 8.728 114.661 9.064 114.421 9.288C114.197 9.512 113.877 9.656 113.461 9.72L105.685 10.848ZM120.208 6.384V9.624H117.16V6.144C117.16 5.712 117.256 5.36 117.448 5.088C117.64 4.8 117.92 4.544 118.288 4.32C118.784 4.016 119.4 3.768 120.136 3.576C120.872 3.384 121.656 3.288 122.488 3.288C124.008 3.288 124.768 3.76 124.768 4.704C124.768 4.928 124.736 5.144 124.672 5.352C124.608 5.544 124.528 5.704 124.432 5.832C124.272 5.8 124.072 5.776 123.832 5.76C123.592 5.728 123.344 5.712 123.088 5.712C122.512 5.712 121.976 5.776 121.48 5.904C120.984 6.032 120.56 6.192 120.208 6.384ZM117.16 8.664L120.208 8.808V14.976C120.08 15.008 119.888 15.048 119.632 15.096C119.392 15.144 119.12 15.168 118.816 15.168C118.256 15.168 117.84 15.064 117.568 14.856C117.296 14.648 117.16 14.28 117.16 13.752V8.664Z" fill="#FCFDFF"/>
</svg>
